<svg width="58" height="54" fill="none" xmlns="http://www.w3.org/2000/svg"><g clip-path="url(#clip0)"><path d="M46.953 46.173l.67-1.259c1.686-3.177 1.323-6.965-.941-9.814l.958-1.898c1.667-3.304 1.143-7.206-1.349-10.025L45.12 21.85a1.338 1.338 0 01-.341-.887V12.19c0-6.294-5.48-11.396-12.24-11.396-1.489 0-2.9.62-3.848 1.688-.948-1.069-2.358-1.688-3.847-1.688-6.76 0-12.24 5.102-12.24 11.396v8.776c0 .323-.12.636-.341.886l-1.172 1.326c-2.49 2.819-3.016 6.721-1.348 10.025l.958 1.898c-2.264 2.849-2.628 6.638-.94 9.814l.669 1.26 4.078 4.661h31.401l1.044-4.662z" fill="#338CCD"/><path d="M32.539.793c-1.489 0-2.9.62-3.848 1.688-.948-1.069-2.358-1.688-3.847-1.688-6.76 0-12.24 5.102-12.24 11.396v8.776c0 .323-.12.636-.341.886l-1.172 1.326c-2.49 2.819-3.016 6.721-1.348 10.025l.958 1.898c-2.264 2.849-2.628 6.637-.94 9.814l.668 1.26 4.078 4.661h8.554l-1.895-2.167-.67-1.26a8.86 8.86 0 01-.533-7.17 6.579 6.579 0 00.397-2.212v-1.358a6.4 6.4 0 00-.357-2.098c-1.049-3.035-.389-6.394 1.825-8.899l1.171-1.326c.22-.25.341-.563.341-.886v-8.776c0-6.293 5.48-11.395 12.24-11.395.868 0 1.71.21 2.45.598.861.452 1.908.474 2.766.016l.092-.046C38.7 1.956 35.765.793 32.539.793z" fill="#1C6498"/><path d="M34.04 40.363c-.517-.244-.845-.738-.845-1.28V23.468h-8.894v15.615c0 .542-.327 1.036-.845 1.28l-5.092 2.399 4.076 4.287 1.451.624h9.45l6.045-4.738.042-.034-5.387-2.538z" fill="#FFE5C2"/><path d="M34.04 40.363c-.518-.244-.845-.738-.845-1.28V23.468h-8.894v15.615c0 .542-.327 1.036-.845 1.28l-5.46 2.572 2.012 2.125-.24.24.258.054 5.673-.515 8.395-3.954a1.54 1.54 0 00.426-.296l-.48-.226z" fill="#FED2A4"/><path d="M38.824 14.239c-2.427-.112-4.484-1.7-5.053-3.899l-.077-.296c-.052-.203-.324-.274-.482-.126-2.978 2.783-7.024 4.347-11.243 4.347H18.65c-.361 0-.654.272-.654.609v6.45l1.86-.144 1.08 8.97 9.165 4.599 4.63-.696 1.097-.686c2.224-1.392 3.558-3.724 3.558-6.22V14.79c0-.294-.247-.536-.562-.551z" fill="#FFE5C2"/><path d="M49.746 49.083v2.589c0 .626-.545 1.133-1.217 1.133H10.884c-.672 0-1.217-.507-1.217-1.133v-2.59c0-1.333.806-2.554 2.085-3.156l7.203-3.392.426.168a28.086 28.086 0 0020.537 0l.426-.168.023-.042 7.294 3.434c1.279.602 2.085 1.823 2.085 3.157z" fill="#FBB400"/><path d="M50.655 27.681a8.005 8.005 0 01-1.495-1.413.908.908 0 00-1.39.015 6.502 6.502 0 01-1.493 1.348c-.473.319-.497.973-.03 1.3.56.39 1.058.857 1.49 1.404a.909.909 0 001.387.019c.449-.53.96-.997 1.527-1.408a.769.769 0 00.004-1.265zM16.175 5.652a8.007 8.007 0 01-1.495-1.414.908.908 0 00-1.39.015 6.504 6.504 0 01-1.493 1.349c-.473.318-.497.973-.03 1.298a6.964 6.964 0 011.49 1.406.909.909 0 001.388.018 8.54 8.54 0 011.526-1.407.769.769 0 00.004-1.265zM11.76 39.95a8.005 8.005 0 01-1.494-1.414.908.908 0 00-1.39.015A6.503 6.503 0 017.383 39.9c-.473.318-.497.972-.03 1.298.561.39 1.058.858 1.49 1.405a.909.909 0 001.388.019c.448-.53.96-.997 1.526-1.408a.769.769 0 00.004-1.264z" fill="#FEF056"/><path d="M21.432 46.849l4.184-1.971a27.843 27.843 0 01-7.193-1.775l-.426-.168-7.204 3.392c-1.278.602-2.084 1.823-2.084 3.157v2.589c0 .626.545 1.133 1.217 1.133h9.42v-3.2c0-1.335.807-2.555 2.086-3.157z" fill="#FDB441"/><path d="M29.863 31.135c-2.224-1.392-3.558-3.723-3.558-6.219v-4.493c0-1.738 1.262-3.267 3.073-3.688a16.289 16.289 0 006.73-3.315c-1.145-.694-2-1.78-2.337-3.08l-.004-.015c-.058-.224-.308-.407-.555-.407-1.946 1.818-4.347 3.113-6.954 3.794v.002a16.964 16.964 0 01-4.29.551H18.65c-.361 0-.654.273-.654.609v12.274c0 2.495 1.334 4.827 3.558 6.219l3.84 2.403a6.275 6.275 0 006.594 0l2.744-1.717a6.06 6.06 0 01-1.03-.514l-3.84-2.404z" fill="#FED2A4"/><path d="M45.63 16.948c0-.438-.38-.793-.852-.793-.47 0-.852.355-.852.793v4.017c0 .506.19 1 .536 1.39l1.172 1.326.046.054.04.047a.876.876 0 00.666.299.889.889 0 00.53-.174.757.757 0 00.136-1.114l-.03-.036c-.025-.029-.048-.057-.073-.084l-1.171-1.326a.579.579 0 01-.148-.383v-4.016zM18.358 3.474c1.91-1.235 4.152-1.887 6.486-1.887 1.238 0 2.401.51 3.19 1.4a.878.878 0 00.657.287.879.879 0 00.657-.288c.79-.89 1.952-1.4 3.19-1.4 6.28 0 11.388 4.757 11.388 10.603v1.378c0 .438.382.794.852.794.471 0 .852-.356.852-.794V12.19C45.63 5.468 39.758 0 32.54 0c-1.431 0-2.79.482-3.848 1.345A6.079 6.079 0 0024.844 0c-2.683 0-5.262.75-7.459 2.171-.386.25-.482.744-.213 1.104.268.36.799.45 1.186.2z" fill="#000"/><path d="M47.929 46.127l.457-.861c1.76-3.315 1.475-7.197-.722-10.245l.489-.969c.2-.397.017-.87-.41-1.056-.425-.186-.933-.015-1.133.381l-.7 1.386a.748.748 0 00.087.81c2.084 2.621 2.414 6.066.861 8.99l-.403.758-12.03-5.665a.634.634 0 01-.377-.572v-3.647l2.256-1.412c2.464-1.542 3.935-4.113 3.935-6.877V14.79c0-.718-.603-1.308-1.373-1.343-2.035-.095-3.79-1.448-4.267-3.292l-.076-.296a1.1 1.1 0 00-.8-.773c-.397-.104-.824 0-1.115.272-2.797 2.614-6.675 4.114-10.64 4.114H18.65c-.83 0-1.506.629-1.506 1.402v2.798c0 .438.382.794.852.794.471 0 .853-.356.853-.794v-2.614h3.12c4.094 0 8.106-1.436 11.152-3.968.815 2.16 2.944 3.72 5.413 3.925v12.133c0 2.235-1.189 4.313-3.181 5.56l-3.84 2.404a5.35 5.35 0 01-5.643 0l-1.092-.684h-.001l-2.747-1.72c-1.992-1.247-3.181-3.325-3.181-5.56v-6.095c0-.438-.382-.793-.852-.793-.471 0-.853.355-.853.793v6.095c0 2.764 1.471 5.335 3.935 6.877l2.37 1.483v3.576a.634.634 0 01-.378.572l-12.12 5.708-.427-.801a8.33 8.33 0 01-.419-.923c.31-.099.585-.279.795-.528a7.747 7.747 0 011.38-1.271c.423-.306.664-.767.663-1.267a1.54 1.54 0 00-.662-1.253 7.222 7.222 0 01-1.34-1.27 1.709 1.709 0 00-.726-.51 8.45 8.45 0 011.171-1.969.748.748 0 00.087-.81l-.959-1.897c-1.52-3.01-1.034-6.616 1.236-9.185l1.171-1.325c.345-.39.536-.885.536-1.39v-8.776c0-.18.005-.362.014-.542.024-.438-.338-.81-.808-.832-.473-.022-.87.315-.894.752-.011.207-.017.416-.017.622v8.775c0 .14-.052.275-.147.383l-1.172 1.325c-2.686 3.04-3.26 7.305-1.461 10.868l.747 1.48a9.862 9.862 0 00-1.465 2.988c-.021.024-.044.047-.064.072-.335.424-.774.82-1.305 1.176a1.59 1.59 0 00-.722 1.297c-.005.51.243.976.68 1.28a6.2 6.2 0 011.306 1.232c.192.762.476 1.502.848 2.201l.491.925c-1.024.81-1.632 2.001-1.632 3.293v3.723c0 .438.382.793.853.793.47 0 .852-.355.852-.793v-3.723c0-1.04.62-1.98 1.617-2.449l6.85-3.226.062.025a28.717 28.717 0 0010.743 2.005c.47-.002.85-.359.848-.797-.003-.437-.384-.79-.852-.79h-.005l-.135.001c-2.963 0-5.857-.472-8.625-1.403l3.776-1.779c.81-.38 1.313-1.142 1.313-1.987v-2.516a7.119 7.119 0 003.538.937 7.115 7.115 0 003.652-1.004v2.583c0 .844.503 1.606 1.313 1.987l3.726 1.755a27 27 0 01-4.97 1.173c-.466.064-.788.467-.719.9.063.395.426.678.842.678a.924.924 0 00.126-.009 28.73 28.73 0 006.632-1.735l.124-.048 6.901 3.25c.998.47 1.618 1.408 1.618 2.449v3.723c0 .438.381.793.852.793.47 0 .852-.355.852-.793v-3.723c0-1.326-.638-2.546-1.711-3.357zM7.882 40.543a7.352 7.352 0 001.68-1.522c.005-.007.012-.007.015-.008.007 0 .01.001.014.007a8.872 8.872 0 001.648 1.556c0 .003 0 .009-.005.012a9.404 9.404 0 00-1.673 1.543c-.007.008-.01.01-.018.01h-.006l-.01-.01a7.667 7.667 0 00-1.66-1.561c0-.002-.003-.015.015-.027z" fill="#000"/><path d="M51.175 27.053a7.222 7.222 0 01-1.34-1.27 1.754 1.754 0 00-1.383-.625 1.752 1.752 0 00-1.369.654 5.71 5.71 0 01-1.304 1.176c-.448.3-.718.786-.722 1.297-.005.51.243.976.68 1.28.493.345.935.762 1.313 1.24a1.75 1.75 0 001.358.655h.03c.532 0 1.025-.223 1.356-.615a7.756 7.756 0 011.38-1.272c.422-.305.664-.767.663-1.266a1.54 1.54 0 00-.662-1.254zm-1.047 1.267a9.406 9.406 0 00-1.673 1.544c-.007.007-.015.008-.018.01-.006 0-.008-.001-.014-.008a7.674 7.674 0 00-1.662-1.564c0-.002-.003-.015.015-.027a7.352 7.352 0 001.68-1.522.024.024 0 01.015-.008c.007 0 .009.001.014.007a8.878 8.878 0 001.648 1.556c0 .004 0 .009-.005.012zM11.257 7.536a6.16 6.16 0 011.313 1.24 1.75 1.75 0 001.359.654h.029c.532 0 1.025-.223 1.356-.615a7.75 7.75 0 011.38-1.272c.422-.305.664-.767.663-1.266a1.54 1.54 0 00-.662-1.254 7.223 7.223 0 01-1.34-1.27 1.755 1.755 0 00-1.383-.625 1.752 1.752 0 00-1.368.654 5.71 5.71 0 01-1.305 1.176c-.447.3-.717.786-.722 1.297-.005.51.243.976.68 1.28zm1.039-1.29a7.352 7.352 0 001.68-1.523.022.022 0 01.015-.008c.007 0 .009.001.014.007a8.87 8.87 0 001.648 1.557c0 .003 0 .008-.005.011a9.402 9.402 0 00-1.673 1.544c-.007.007-.01.01-.018.01-.007 0-.008-.001-.014-.008a7.665 7.665 0 00-1.662-1.564c0-.002-.003-.015.015-.027z" fill="#000"/></g><defs><clipPath id="clip0"><path fill="#fff" d="M0 0h58v54H0z"/></clipPath></defs></svg>