<svg width="80" height="80" fill="none" xmlns="http://www.w3.org/2000/svg"><g clip-path="url(#clip0)"><path fill-rule="evenodd" clip-rule="evenodd" d="M22.874 40.66l-2.19 3.364 2.19 3.47 10.28-.77-5.535-41.979C27.282 2.158 25.484 0 22.874 0l-2.19 21.087 2.19 11.784a3.894 3.894 0 010 7.789z" fill="#DDDAEC"/><path fill-rule="evenodd" clip-rule="evenodd" d="M12.594 46.723l10.28.771V40.66a3.895 3.895 0 110-7.788V0c-2.614 0-4.408 2.158-4.75 4.745l-5.53 41.978z" fill="#F9F6F6"/><path d="M75.126 0H59.458c-5.152.014-8.186 3.08-8.2 4.882v.032c.01 1.789 1.488 1.661 3.29 1.661h14.359c.493 0 .894.402.894.895v4.587H51.258a1.207 1.207 0 100 2.414h18.543v4.27H51.258a1.207 1.207 0 100 2.415h18.543v4.27H51.258a1.207 1.207 0 100 2.414h18.543v4.27H51.258a1.207 1.207 0 100 2.415h18.543v4.27H51.258a1.207 1.207 0 100 2.414h18.543v4.27H51.258a1.207 1.207 0 100 2.414h18.543v4.27H51.258a1.207 1.207 0 100 2.415h18.543v4.27H51.258a1.207 1.207 0 100 2.414h18.543v4.27H51.258a1.207 1.207 0 100 2.414h18.543v4.579a.9.9 0 01-.894.899H54.548c-1.802 0-3.28-.133-3.29 1.66v.029c.014 1.789 2.975 4.8 8.022 4.887h15.846c2.39 0 4.344-1.958 4.344-4.349V4.348C79.47 1.958 77.517 0 75.126 0z" fill="#FFBC85"/><path fill-rule="evenodd" clip-rule="evenodd" d="M74.547 4.344v71.308c0 2.39-1.958 4.343-4.349 4.343h-11.01c.032.005.06.005.092.005h15.846a4.36 4.36 0 004.344-4.312V4.312A4.36 4.36 0 0075.126 0H70.3c2.345.055 4.248 1.99 4.248 4.344z" fill="#F5A96C"/><path fill-rule="evenodd" clip-rule="evenodd" d="M6.047 68.716c-.042-7.054 2.696-9.591 8.646-10.307 1.483-.183 2.67.46 2.665 2.245l-.014 6.912c-.014 9.313-11.252 8.743-11.297 1.15zm-5.517.032c.028 5.32 3.404 9.86 8.67 11.001 3.285.707 6.761-.105 9.358-2.245 2.988-2.464 4.302-6.132 4.307-9.929l.009-19.31v-.77a.773.773 0 00-.771-.772H11.736a.773.773 0 00-.77.772v6.004C3.792 55.37.48 60.535.53 68.75z" fill="#9DC6FB"/><path fill-rule="evenodd" clip-rule="evenodd" d="M22.874 48.266l.005 19.31c.004 3.796 1.323 7.464 4.311 9.928 2.596 2.14 6.073 2.952 9.354 2.245 5.27-1.14 8.642-5.68 8.674-11 .045-8.214-3.263-13.379-10.44-15.25v-6.005a.773.773 0 00-.771-.77H23.645a.773.773 0 00-.771.77v.772zm5.512 12.388c0-1.785 1.181-2.428 2.664-2.245 5.95.716 8.688 3.253 8.647 10.307-.041 7.593-11.28 8.163-11.298-1.15l-.013-6.912z" fill="#9DC6FB"/><path fill-rule="evenodd" clip-rule="evenodd" d="M33.154 46.723h-1.862v7.921c8.473 1.753 10.485 5.891 10.44 14.104-.032 5.32-3.404 9.86-8.674 11.001-.201.041-.402.082-.603.114 1.346.21 2.734.178 4.089-.114 5.27-1.14 8.641-5.68 8.673-11 .046-8.214-3.262-13.379-10.44-15.25v-6.005a.773.773 0 00-.77-.77h-.853zm-13.514 0l-.005 19.963c-.005 3.796-1.319 7.464-4.308 9.928-2.596 2.14-6.077 1.807-9.362 1.095a10.883 10.883 0 01-1.839-.56 10.85 10.85 0 005.074 2.6c3.285.707 6.762-.105 9.358-2.245 2.988-2.464 4.302-6.132 4.307-9.929l.01-19.31v-.77a.773.773 0 00-.772-.772h-2.464z" fill="#80B4FB"/></g><defs><clipPath id="clip0"><path fill="#fff" d="M0 0h80v80H0z"/></clipPath></defs></svg>