<svg width="79" height="80" fill="none" xmlns="http://www.w3.org/2000/svg"><g clip-path="url(#clip0)"><path d="M14.067 27.658h6.358V66.72h-6.358V27.658z" fill="#4E5660"/><path d="M14.067 27.658h3.18V66.72h-3.18V27.658z" fill="#383C43"/><path d="M21.668 80h-8.842c-1.003 0-1.755-.928-1.56-1.924l2.801-14.253a4.708 4.708 0 016.358 0l2.802 14.253c.195.996-.557 1.924-1.56 1.924z" fill="#E8899E"/><path d="M14.445 78.076l2.802-15.488a4.708 4.708 0 00-3.18 1.235l-2.8 14.253c-.196.996.556 1.924 1.558 1.924h3.18c-1.003 0-1.755-.928-1.56-1.924z" fill="#E26E7E"/><path d="M22.81 0H11.683c-1.756 0-3.18 1.441-3.18 3.22v24.144H25.99V3.22c0-1.778-1.424-3.219-3.18-3.219z" fill="#E8899E"/><path d="M18.041 0h-6.358c-1.756 0-3.18 1.441-3.18 3.22v24.144h6.359V3.22c0-1.778 1.423-3.219 3.18-3.219z" fill="#E26E7E"/><path d="M25.989 30.583H8.504c-1.756 0-3.18-1.441-3.18-3.219 0-1.778 1.424-3.22 3.18-3.22h17.485c1.755 0 3.179 1.442 3.179 3.22 0 1.778-1.424 3.22-3.18 3.22z" fill="#E26E7E"/><path d="M11.683 27.364c0-1.778 1.423-3.22 3.179-3.22H8.504c-1.756 0-3.18 1.442-3.18 3.22 0 1.778 1.424 3.22 3.18 3.22h6.358c-1.756 0-3.18-1.442-3.18-3.22z" fill="#D66376"/><path d="M44.269 20.926h17.485V37.37H44.269V20.926z" fill="#E26E7E"/><path d="M44.269 20.926h8.742V37.37h-8.742V20.926z" fill="#D66376"/><path d="M65.727 80H40.295c-4.39 0-7.948-3.603-7.948-8.048V55.824a48.352 48.352 0 017.017-25.103 3.17 3.17 0 012.707-1.532h21.88a3.17 3.17 0 012.708 1.532 48.351 48.351 0 017.016 25.103v16.128c0 4.445-3.558 8.048-7.948 8.048z" fill="#E8899E"/><path d="M43.474 71.952V55.824a48.352 48.352 0 017.017-25.103 3.17 3.17 0 012.707-1.532H42.071a3.17 3.17 0 00-2.707 1.532 48.352 48.352 0 00-7.017 25.103v16.128c0 4.445 3.558 8.048 7.948 8.048h11.127c-4.39 0-7.948-3.603-7.948-8.048z" fill="#E26E7E"/><path d="M61.753 24.145H44.27c-1.756 0-3.18-1.442-3.18-3.22 0-1.777 1.424-3.219 3.18-3.219h17.484c1.756 0 3.18 1.442 3.18 3.22 0 1.778-1.424 3.219-3.18 3.219z" fill="#E8899E"/><path d="M47.448 20.925c0-1.777 1.423-3.219 3.18-3.219h-6.359c-1.756 0-3.18 1.442-3.18 3.22 0 1.777 1.424 3.219 3.18 3.219h6.358c-1.756 0-3.179-1.442-3.179-3.22z" fill="#E26E7E"/><path d="M53.01 69.081c7.902 0 14.307-6.486 14.307-14.487 0-8-6.405-14.487-14.306-14.487-7.901 0-14.306 6.486-14.306 14.487 0 8.001 6.405 14.487 14.306 14.487z" fill="#EBFAFF"/></g><defs><clipPath id="clip0"><path fill="#fff" d="M0 0h79v80H0z"/></clipPath></defs></svg>