<svg width="79" height="80" fill="none" xmlns="http://www.w3.org/2000/svg"><g clip-path="url(#clip0)"><path d="M7.387 17.392A1.164 1.164 0 016.23 16.22v-4.256c0-.648.518-1.172 1.157-1.172.64 0 1.157.524 1.157 1.171v4.257c0 .647-.518 1.172-1.157 1.172z" fill="#D0CEE7"/><path d="M6.661 6.772a1.19 1.19 0 01-1.183-1.198V1.226c0-.662.53-1.199 1.183-1.199a1.19 1.19 0 011.183 1.199v4.348a1.19 1.19 0 01-1.183 1.198z" fill="#DDDAEC"/><path d="M12.13 39.689c-.176 0-.356-.04-.525-.125-2.262-1.137-4.14-3.417-5.284-6.422-1.029-2.702-1.411-5.864-1.048-8.677a1.186 1.186 0 011.326-1.033 1.196 1.196 0 011.02 1.344c-.589 4.567 1.17 10.698 5.038 12.64.585.294 2.335.992 2.044 1.585-.206.422-1.183 1.332-2.57.688zm6.915-3.031c-.251 0-.505-.08-.72-.248-3.792-2.948-5.678-8.027-4.804-12.94a1.185 1.185 0 011.374-.967c.643.118 1.07.741.955 1.392-.719 4.04.819 8.206 3.917 10.614.518.403 1.828 1.358 1.43 1.883-.233.307-1.796.266-2.152.266zm8.605-.96c-.312 0-2.303-.808-2.536-1.055-2.305-2.443-3.53-6.28-3.194-10.013a1.186 1.186 0 011.285-1.085c.651.06 1.131.642 1.072 1.302-.27 3.017.73 6.213 2.549 8.14.451.48 2.114 1.922 1.642 2.38-.23.221-.524.331-.818.331zm8.065-.31c-.307 0-2.492-1.057-2.724-1.297-2.144-2.225-3.268-5.098-3.249-8.31a1.19 1.19 0 011.184-1.19h.007a1.19 1.19 0 011.176 1.205c-.015 2.567.876 4.857 2.576 6.62.456.474 2.325 2.169 1.857 2.63-.23.228-.529.342-.827.342z" fill="#365E7D"/><path d="M48.395 9.938H23.623c-.764 0-1.383-.536-1.383-1.198 0-.662.62-1.199 1.383-1.199h24.772c.764 0 1.384.537 1.384 1.199s-.62 1.198-1.384 1.198z" fill="#DDDAEC"/><path d="M19.163 17.48a1.19 1.19 0 01-1.184-1.198v-4.353c0-.662.53-1.199 1.184-1.199a1.19 1.19 0 011.183 1.199v4.353a1.19 1.19 0 01-1.183 1.198zm-6.253 0a1.19 1.19 0 01-1.184-1.198v-4.353c0-.662.53-1.199 1.183-1.199a1.19 1.19 0 011.184 1.199v4.353a1.19 1.19 0 01-1.184 1.198z" fill="#D0CEE7"/><path d="M19.163 6.745a1.191 1.191 0 01-1.184-1.198V1.198c0-.661.53-1.198 1.184-1.198a1.19 1.19 0 011.183 1.198v4.349a1.19 1.19 0 01-1.183 1.198zm-6.249 0a1.19 1.19 0 01-1.184-1.198V1.198C11.73.537 12.26 0 12.914 0a1.19 1.19 0 011.183 1.198v4.349a1.19 1.19 0 01-1.183 1.198z" fill="#DDDAEC"/><path fill-rule="evenodd" clip-rule="evenodd" d="M6.66 5.547H3.562C1.826 5.547.408 6.982.408 8.74c0 1.753 1.418 3.189 3.153 3.189h18.701c1.735 0 3.153-1.436 3.153-3.19 0-1.757-1.418-3.192-3.153-3.192H6.66z" fill="#DDDAEC"/><path fill-rule="evenodd" clip-rule="evenodd" d="M46.602 8.74v3.23c0 1.159.998 2.11 2.219 2.11h4.133l1.61-4.606-1.61-6.074H48.82c-1.221 0-2.218.95-2.218 2.11v3.23z" fill="#365E7D"/><path fill-rule="evenodd" clip-rule="evenodd" d="M52.954 3.4v11.976c0 .43.344.779.77.779h6.132l1.417-5.92-1.417-8.914h-6.133a.78.78 0 00-.769.779v1.3z" fill="#F9F6F6"/><path fill-rule="evenodd" clip-rule="evenodd" d="M59.855 1.32v14.835H74.07c2.55 0 4.638-2.116 4.638-4.697v-5.44c0-2.582-2.088-4.697-4.638-4.697H59.856z" fill="#365E7D"/><path fill-rule="evenodd" clip-rule="evenodd" d="M59.856 16.155V12.39h-6.901v2.985c0 .43.343.779.768.779h6.133z" fill="#DDDAEC"/><path fill-rule="evenodd" clip-rule="evenodd" d="M59.855 16.155H74.07c2.55 0 4.638-2.116 4.638-4.697v-5.44a4.717 4.717 0 00-3.14-4.444c.032.222.05.449.05.68v5.44c0 2.582-2.09 4.697-4.639 4.697H59.856v3.764zM48.821 14.08h4.133v-2.903H48.82c-1.221 0-2.218-.951-2.218-2.111v2.903c0 1.16.997 2.111 2.218 2.111z" fill="#2B4D66"/><path fill-rule="evenodd" clip-rule="evenodd" d="M6.66 11.929h15.603c1.735 0 3.153-1.436 3.153-3.19a3.19 3.19 0 00-.505-1.72c-.425 1.25-1.602 2.156-2.98 2.156H3.23A3.139 3.139 0 01.582 7.703 3.191 3.191 0 00.408 8.74c0 1.753 1.418 3.189 3.153 3.189h3.1z" fill="#D0CEE7"/><path fill-rule="evenodd" clip-rule="evenodd" d="M3.83 45.547c-1.906 1.309-2.791 2.872-3.458 5.005C.108 52.3.49 54.144 1.5 56.196 8.334 70.033 21.466 76.99 36.092 79.26c14.13 2.188 28.939-.14 39.79-11.523 1.574-1.649 2.482-3.293 2.746-5.037C78.583 42.127 26.51 29.992 3.83 45.547z" fill="#F9F6F6"/><path fill-rule="evenodd" clip-rule="evenodd" d="M55.347 44.188a72.351 72.351 0 00-13.45-3.415c-4.606-.716-9.28-1.002-13.838-.82-3.86 2.953-6.647 7.469-7.434 12.696-1.614 10.644 5.605 20.596 16.116 22.226 10.51 1.631 20.337-5.675 21.947-16.32.792-5.227-.532-10.381-3.34-14.367zM35.318 47.09a10.2 10.2 0 015.855-.82c5.654.88 9.536 6.233 8.668 11.958-.863 5.73-6.15 9.662-11.808 8.783-5.654-.879-9.536-6.232-8.668-11.958l.053-.33a5.12 5.12 0 01-.836-3.665c.42-2.767 2.974-4.67 5.707-4.244a4.9 4.9 0 011.03.276z" fill="#D09080"/><path fill-rule="evenodd" clip-rule="evenodd" d="M38.48 52.595c-.42 2.767-2.974 4.67-5.707 4.244a4.99 4.99 0 01-3.354-2.115l-.054.33c-.868 5.726 3.015 11.08 8.668 11.958 5.658.879 10.945-3.053 11.808-8.783.868-5.725-3.014-11.079-8.668-11.957a10.2 10.2 0 00-5.855.82c2.16.833 3.525 3.098 3.163 5.503z" fill="#365E7D"/><path fill-rule="evenodd" clip-rule="evenodd" d="M34.29 46.815c-2.733-.426-5.287 1.477-5.708 4.244a5.12 5.12 0 00.837 3.665 4.99 4.99 0 003.354 2.115c2.733.426 5.287-1.477 5.707-4.244.363-2.405-1.002-4.67-3.162-5.504a4.86 4.86 0 00-1.029-.276z" fill="#F9F6F6"/><path fill-rule="evenodd" clip-rule="evenodd" d="M7.399 50.747c4.652-2.827 10.117-4.643 15.927-5.522a19.329 19.329 0 014.733-5.272c-8.364.326-16.335 2.206-22.811 5.811-1.794 1.001-4.21 2.655-4.876 4.788C.108 52.3.49 54.144 1.5 56.196c.483.974.993 1.911 1.535 2.813-.305-1.196-.376-2.333-.21-3.43.643-2.137 2.902-3.818 4.575-4.832z" fill="#DDDAEC"/><path fill-rule="evenodd" clip-rule="evenodd" d="M28.618 44.686c4.227-.23 8.56-.004 12.823.661a61.98 61.98 0 0112.435 3.257 54.885 54.885 0 014.383 1.875 19.53 19.53 0 00-2.912-6.291 72.361 72.361 0 00-13.45-3.416c-4.606-.715-9.28-1-13.838-.82a19.324 19.324 0 00-4.732 5.273 54.849 54.849 0 015.29-.539z" fill="#CE775F"/><path fill-rule="evenodd" clip-rule="evenodd" d="M78.628 62.7c-.004-2.242-1.82-4.552-3.238-6.051-5.108-5.4-12.162-9.612-20.043-12.461a19.528 19.528 0 012.912 6.291c5.488 2.628 10.35 6.102 14.067 10.341 1.297 1.477 2.956 3.764 2.938 6.002a8.19 8.19 0 01-.68 2.22c.439-.422.873-.857 1.298-1.305 1.574-1.649 2.482-3.293 2.746-5.037z" fill="#DDDAEC"/><path fill-rule="evenodd" clip-rule="evenodd" d="M38.596 33.471a55.54 55.54 0 00-8.806-.081c-2.29.163-4.558.484-6.79.983a40.498 40.498 0 00-7.742 2.545c-4.38 1.952-8.485 4.76-12.14 8.597C1.544 47.164.636 48.808.372 50.552c.666-2.133 3.082-3.787 4.875-4.788 6.477-3.605 14.448-5.485 22.811-5.811 4.558-.181 9.232.104 13.84.82 4.61.715 9.15 1.861 13.449 3.415 7.88 2.85 14.934 7.062 20.042 12.46 1.418 1.5 3.234 3.81 3.239 6.052.263-1.748-.117-3.592-1.127-5.643-6.991-14.155-20.441-20.868-34.575-23.06a60.789 60.789 0 00-4.33-.526z" fill="#FED1A3"/></g><defs><clipPath id="clip0"><path fill="#fff" d="M0 0h79v80H0z"/></clipPath></defs></svg>