<svg width="79" height="80" fill="none" xmlns="http://www.w3.org/2000/svg"><g clip-path="url(#clip0)"><path d="M39.127 80c-2.073 0-3.753-1.701-3.753-3.8V45.824c0-2.099 1.68-3.8 3.753-3.8 2.072 0 3.753 1.701 3.753 3.8V76.2c0 2.099-1.68 3.8-3.753 3.8zm9.125 0c-2.072 0-3.753-1.701-3.753-3.8V45.824c0-2.099 1.68-3.8 3.753-3.8 2.073 0 3.753 1.701 3.753 3.8V76.2c0 2.099-1.68 3.8-3.753 3.8z" fill="#FFB69E"/><path d="M72.09 56.477H32.098c-1.835 0-3.322-1.506-3.322-3.364 0-1.858 1.487-3.364 3.322-3.364h39.994c1.835 0 3.322 1.506 3.322 3.364 0 1.858-1.487 3.364-3.322 3.364z" fill="#F2A88F"/><path d="M55.728 32.832l.661-9.452a7.707 7.707 0 00-2-5.735 7.509 7.509 0 00-5.509-2.426H38.337c-3.347 0-5.78 2.168-7.231 6.443a720.52 720.52 0 01-2.893 8.294l-8.035 7.997a3.195 3.195 0 00-.038 4.479 3.1 3.1 0 004.422.038l8.545-8.505a3.17 3.17 0 00.752-1.189c.735-2.075 1.93-5.483 1.93-5.483l-4.442 23.583c-.208 1.09.618 2.095 1.706 2.095h21.404c1.086 0 1.913-1.008 1.705-2.095l-2.89-15.115.543-.23a3.165 3.165 0 001.914-2.699z" fill="#FFB69E"/><path d="M56.056 28.156l.334-4.776a7.707 7.707 0 00-2.002-5.734 7.509 7.509 0 00-5.507-2.427h-1.839c.051 1.76-1.565 3.25-3.253 3.25-1.808 0-3.15-1.485-3.248-3.25h-2.205c-3.347 0-5.78 2.168-7.231 6.443-.502 1.479-2.025 5.836-2.025 5.836l5.833 2.027c.031 0 .06.004.088.01l.787-2.242-4.442 23.583c-.208 1.09.618 2.096 1.706 2.096h21.404c1.086 0 1.913-1.009 1.705-2.096l-2.89-15.115.123-4.62 2.662-2.985z" fill="#FF6473"/><path d="M72.09 44.334s-50.294-.01-52.956 0c-2.059.001-3.726 1.765-3.725 3.85l.006 4.52c.001 2.086 1.671 3.774 3.73 3.773l19.123-.013 3.497-5.402H72.09c1.834 0 3.322-1.506 3.322-3.364 0-1.858-1.487-3.364-3.322-3.364z" fill="#FFB69E"/><path d="M7.311 80c-1.075 0-1.947-.883-1.947-1.972V59.622c0-1.09.872-1.973 1.947-1.973 1.076 0 1.948.883 1.948 1.973v18.406A1.96 1.96 0 017.311 80zm64.479 0a1.96 1.96 0 01-1.948-1.972V59.622c0-1.09.872-1.973 1.948-1.973s1.948.883 1.948 1.973v18.406A1.96 1.96 0 0171.79 80z" fill="#5A2D19"/><path d="M50.222 7.222c.354-3.606-2.246-6.821-5.808-7.18-3.561-.359-6.736 2.274-7.09 5.88-.355 3.607 2.245 6.822 5.807 7.18 3.562.36 6.736-2.273 7.09-5.88z" fill="#FFB69E"/><path d="M75.986 61.2H3.116C1.826 61.2.78 60.14.78 58.833s1.046-2.367 2.337-2.367h72.87c1.29 0 2.337 1.06 2.337 2.367S77.277 61.2 75.986 61.2z" fill="#965028"/><path d="M38.034 38.772c-.665-1.614.087-3.468 1.681-4.142l9.91-4.192.177-2.525 6.254.243-.328 4.676a3.164 3.164 0 01-1.914 2.699l-11.689 4.943c-1.604.678-3.43-.098-4.09-1.702z" fill="#FFB69E"/><path d="M11.708 51.478h-9.03c-.7 0-1.267.575-1.267 1.283V55.2c0 .708.567 1.283 1.267 1.283h9.03c.7 0 1.267-.575 1.267-1.283v-2.44c0-.708-.567-1.283-1.267-1.283zm48.241-7.819H39.83a.801.801 0 00-.796.806v18.418c0 .445.357.806.796.806h20.12a.8.8 0 00.796-.806V44.465a.801.801 0 00-.796-.806z" fill="#64AFFF"/><path d="M48.317 56.477H21.464c-1.636-.01-2.956-1.512-2.946-3.17.009-1.65 1.35-2.83 2.98-2.83h26.835c1.636.009 2.956 1.36 2.946 3.017-.009 1.65-1.334 2.983-2.962 2.983z" fill="#F2A88F"/><path d="M8.699 53.293c3.517-.822 5.71-4.377 4.897-7.938-.813-3.562-4.322-5.782-7.84-4.96-3.517.823-5.71 4.377-4.897 7.94.813 3.56 4.323 5.781 7.84 4.958z" fill="#FFB69E"/></g><defs><clipPath id="clip0"><path fill="#fff" d="M0 0h79v80H0z"/></clipPath></defs></svg>