<svg width="81" height="80" fill="none" xmlns="http://www.w3.org/2000/svg"><g clip-path="url(#clip0)"><path d="M.956 48.682A39.67 39.67 0 010 40.066C-.037 18.003 18.16 0 40.5 0 62.867 0 81 17.909 81 40c0 2.941-.322 5.808-.932 8.568-.387 1.753-1.97 2.995-3.786 2.995H4.58a3.704 3.704 0 01-3.625-2.88z" fill="#07A9F0"/><path d="M77.442 37.255c0 18.342-15.055 33.212-33.626 33.212-18.572 0-33.627-14.87-33.627-33.212 0-18.342 15.055-33.21 33.626-33.21 18.572 0 33.627 14.868 33.627 33.21z" fill="#40C1FA"/><path d="M52.207 42.188v-25c0-.863.708-1.563 1.582-1.563h9.492c.874 0 1.582.7 1.582 1.563v25c0 .862-.708 1.562-1.582 1.562H53.79c-.874 0-1.582-.7-1.582-1.563z" fill="#0691CE"/><path d="M80.097 48.438C76.175 66.477 59.937 80 40.5 80S4.824 66.477.902 48.437h79.195z" fill="#453D83"/><path d="M62.49 43.9H51.574c-.873 0-1.582-.7-1.582-1.563v-3.275c0-.862.709-1.562 1.582-1.562H62.49c.874 0 1.582.7 1.582 1.563v3.274c0 .863-.708 1.563-1.582 1.563z" fill="#51489A"/><path d="M68.66 43.9H61.7c-.875 0-1.583-.7-1.583-1.563v-3.275c0-.862.709-1.562 1.582-1.562h6.961c.874 0 1.582.7 1.582 1.563v3.274c0 .863-.708 1.563-1.582 1.563z" fill="#5F55AF"/><path d="M71.191 62.89H49.043a1.572 1.572 0 01-1.582-1.562V43.75c0-.863.708-1.563 1.582-1.563h22.148c.874 0 1.582.7 1.582 1.563v17.578c0 .863-.708 1.563-1.582 1.563z" fill="#B4E7FD"/><path d="M64.072 57.031c-4.805 0-8.7-3.847-8.7-8.593V43.75c0-.863.707-1.563 1.581-1.563h14.238c.874 0 1.582.7 1.582 1.563v4.688c0 4.746-3.895 8.593-8.7 8.593z" fill="#D5F1FE"/><path d="M68.513 52.283a1.572 1.572 0 01-1.582-1.562v-4.567c0-.863.708-1.563 1.582-1.563.874 0 1.582.7 1.582 1.563v4.567c0 .863-.708 1.563-1.582 1.563z" fill="#FFF5F5"/><path d="M9.617 25.014a1.597 1.597 0 01-2.074-.141 1.549 1.549 0 01-.41-1.512l-.15-.146C5.55 21.8 4.747 20.118 4.746 18.796c1.339.001 3.04.793 4.475 2.21l.147.148a1.595 1.595 0 011.53.404c.566.56.614 1.436.143 2.048.274.64-.777 1.677-1.424 1.407z" fill="#453D83"/><path d="M32.713 44.208l-2.238 2.21c-.617.61-1.62.61-2.237 0L8.102 26.53a1.549 1.549 0 010-2.21l2.237-2.21c.618-.61 1.62-.61 2.238 0l20.136 19.888c.617.61.617 1.6 0 2.21z" fill="#5F55AF"/><path d="M10.105 22.342l.234-.231c.618-.61 1.62-.61 2.237 0l18.016 17.793c.618.61.618 1.6 0 2.21l-.234.231c-.618.61-1.62.61-2.237 0L10.105 24.552a1.549 1.549 0 010-2.21z" fill="#6A61B4"/><path d="M29.074 30.893l-2.22.83L15.59 2.353l2.22-.83 11.264 29.37z" fill="#5F55AF"/><path d="M20.266 10.762l-.207.08a2.028 2.028 0 01-2.617-1.13L15.12 3.86a1.987 1.987 0 011.143-2.585l.208-.08a2.028 2.028 0 012.617 1.13l2.322 5.852a1.987 1.987 0 01-1.144 2.585z" fill="#51489A"/><path d="M13.616 2.719a.778.778 0 01.459-1.008l4.438-1.66a.794.794 0 011.02.454.778.778 0 01-.46 1.007l-4.438 1.66a.794.794 0 01-1.02-.453zm8.159 3.63a.794.794 0 00-1.02-.454l-4.438 1.661a.779.779 0 00-.46 1.007.794.794 0 001.02.454l4.439-1.66a.779.779 0 00.459-1.008zm.381 3.2a.794.794 0 00-1.02-.454l-2.959 1.107a.779.779 0 00-.46 1.007.794.794 0 001.02.454l2.96-1.107a.779.779 0 00.46-1.007zm-1.132-6.26a.794.794 0 00-1.02-.454l-5.178 1.937a.778.778 0 00-.46 1.007.794.794 0 001.02.454l5.178-1.937a.779.779 0 00.46-1.007z" fill="#453D83"/><path d="M26.98 20.46a1.124 1.124 0 01-.663 1.456l-3.42 1.279a1.148 1.148 0 01-1.473-.656 1.124 1.124 0 01.664-1.455l3.42-1.279c.59-.22 1.249.073 1.472.656z" fill="#6A61B4"/><path d="M28.61 21.522l6.569 17.128a1.557 1.557 0 01-.919 2.015l-4.734 1.771c-.817.306-1.73-.1-2.04-.907L20.916 24.4a1.556 1.556 0 01.92-2.014l4.734-1.772a1.59 1.59 0 012.04.908z" fill="#51489A"/><path d="M30.229 25.743l4.95 12.907a1.557 1.557 0 01-.919 2.015l-1.529.572c-.817.305-1.73-.1-2.04-.908l-4.95-12.907a1.557 1.557 0 01.92-2.014l1.528-.572c.817-.306 1.73.1 2.04.907z" fill="#5F55AF"/><path d="M41.133 48.438c0 9.492-7.791 17.187-17.403 17.187-9.61 0-17.402-7.695-17.402-17.188 0-9.492 7.792-17.187 17.402-17.187 9.612 0 17.403 7.695 17.403 17.188z" fill="#D5F1FE"/><path d="M41.133 48.458a16.968 16.968 0 01-.92 5.507 1.973 1.973 0 01-1.872 1.318c-1.36 0-2.308-1.32-1.871-2.591.516-1.504.475-3.127.404-4.816-.289-6.893-5.677-12.216-12.657-12.46-3.298-.116-6.346.698-8.745 2.547-1.291.995-3.178.059-3.178-1.558 0-.606.285-1.177.77-1.549a17.483 17.483 0 0111.003-3.614c3 .056 5.819.818 8.266 2.204 5.257 2.976 8.807 8.646 8.8 15.012z" fill="#FFF5F5"/><path d="M36.387 48.438c0 6.903-5.667 12.5-12.657 12.5s-12.656-5.597-12.656-12.5c0-6.904 5.667-12.5 12.656-12.5 6.99 0 12.657 5.596 12.657 12.5z" fill="#72D1FB"/><path d="M30.364 37.79L12.95 54.99a12.32 12.32 0 01-1.764-4.887l14.23-14.056c1.796.236 3.472.844 4.948 1.743zm2.478 1.972L14.946 57.437a12.679 12.679 0 005.767 3.143l15.312-15.122a12.436 12.436 0 00-3.183-5.696z" fill="#93DCFC"/><path d="M23.73 61.719c-7.414 0-13.447-5.958-13.447-13.282 0-7.323 6.033-13.28 13.447-13.28 7.415 0 13.448 5.957 13.448 13.28 0 7.324-6.033 13.282-13.447 13.282zm0-25c-6.542 0-11.865 5.257-11.865 11.718 0 6.462 5.323 11.72 11.865 11.72 6.543 0 11.866-5.258 11.866-11.72 0-6.461-5.323-11.718-11.865-11.718z" fill="#3F97A4"/><path d="M58.488 9.191l-8.934 51.47H36.712l-9.12-51.47h30.896z" fill="#FFDE91"/><path d="M45.639 53.585c-3.158 0-5.794-2.38-6.077-5.486l-3.55-38.908h22.476l-6.836 39.386c-.502 2.893-3.042 5.008-6.014 5.008z" fill="#FCF2B6"/><path d="M60.769 8.088c0 .863-.709 1.563-1.582 1.563H26.895c-.874 0-1.582-.7-1.582-1.563s.708-1.562 1.582-1.562h32.292c.873 0 1.582.7 1.582 1.562z" fill="#FCF2B6"/><path d="M59.186 9.65H35.134a1.572 1.572 0 01-1.582-1.562c0-.863.709-1.562 1.582-1.562h24.052c.874 0 1.582.7 1.582 1.562 0 .863-.708 1.563-1.582 1.563z" fill="#FFF5F5"/><path d="M50.672 60.34v7.629a.786.786 0 01-.791.781H36.2a.786.786 0 01-.791-.781V60.34c0-.431.354-.781.79-.781h13.68c.438 0 .792.35.792.781zm-5.368-37.02h-4.527c-2.508 0-3.677-3.119-1.737-4.688A16.5 16.5 0 0042.6 14.7c.016-.025.774-.163.774-.163.984 1.52 2.17 2.916 3.599 4.04l.057.045c1.949 1.57.788 4.697-1.727 4.697zm4.065 3.222H36.712a.786.786 0 00-.79.782c0 .431.354.78.79.78H49.37c.436 0 .79-.349.79-.78a.786.786 0 00-.79-.782zm-2.373 3.907a.786.786 0 01-.791.78h-6.328a.786.786 0 01-.792-.78c0-.432.355-.782.791-.782h6.329c.436 0 .79.35.79.782zm-1.64 10.25a.786.786 0 01-.791.782h-3.049a.786.786 0 01-.79-.781c0-.432.353-.781.79-.781h3.049c.437 0 .791.35.791.78z" fill="#FFC14F"/><path d="M41.071 23.32h-.294c-2.508 0-3.677-3.119-1.738-4.688l.042-.034a16.437 16.437 0 003.39-3.703c.06-.09.238-.494.324-.555a.36.36 0 01.514.096l.066.101c.187.29.381.574.583.853a21.31 21.31 0 01-2.207 3.162c-1.062 1.278-1.192 3.248-.68 4.768zm1.97 20.636c-.874 0-1.583.7-1.583 1.562 0 .863.709 1.563 1.582 1.563.874 0 1.582-.7 1.582-1.563s-.708-1.562-1.582-1.562z" fill="#FFA90B"/><path d="M16.441 67.578h-7.74c-1.31 0-2.373-1.05-2.373-2.344 0-1.294 1.063-2.343 2.373-2.343h7.74c1.31 0 2.373 1.049 2.373 2.343 0 1.295-1.062 2.344-2.373 2.344z" fill="#93DCFC"/><path d="M38.59 67.578H13.447c-1.31 0-2.373-1.05-2.373-2.344 0-1.294 1.063-2.343 2.373-2.343H38.59c1.31 0 2.373 1.049 2.373 2.343 0 1.295-1.063 2.344-2.373 2.344z" fill="#B4E7FD"/><path d="M53.603 56.25c-1.747 0-3.163-1.4-3.163-3.125v-18.75c0-1.726 1.416-3.125 3.163-3.125 1.748 0 3.165 1.4 3.165 3.125v18.75c0 1.726-1.417 3.125-3.165 3.125z" fill="#FF2EA6"/><path d="M56.768 34.375c0 1.726-1.417 3.125-3.165 3.125-1.747 0-3.163-1.4-3.163-3.125 0-1.726 1.416-3.125 3.163-3.125 1.748 0 3.165 1.4 3.165 3.125z" fill="#FF72C3"/><path d="M57.084 54.688h-6.961c-.874 0-1.582-.7-1.582-1.563v-6.25c0-.863.708-1.563 1.582-1.563h6.961c.874 0 1.582.7 1.582 1.563v6.25c0 .863-.708 1.563-1.582 1.563z" fill="#51489A"/><path d="M57.084 54.688h-1.713c-.874 0-1.582-.7-1.582-1.563v-6.25c0-.863.708-1.563 1.582-1.563h1.713c.874 0 1.582.7 1.582 1.563v6.25c0 .863-.708 1.563-1.582 1.563z" fill="#5F55AF"/><path d="M58.35 72.836h-9.493c-.873 0-1.582-.7-1.582-1.563V50.5c0-.863.709-1.563 1.582-1.563h9.493c.873 0 1.582.7 1.582 1.563v20.774c0 .863-.709 1.563-1.582 1.563z" fill="#8078BF"/><path d="M58.35 68.177h-4.56c-.875 0-1.583-.7-1.583-1.563V50.498c0-.862.708-1.562 1.582-1.562h4.561c.874 0 1.582.7 1.582 1.563v16.115c0 .863-.708 1.563-1.582 1.563z" fill="#958FCA"/><path d="M40.738 62.357c.146.144.29.29.43.438 9.017 9.477-4.913 23.234-14.508 14.328a19.123 19.123 0 01-5.345-19.608c6.657-1.965 14.166-.35 19.423 4.842z" fill="#FF50B5"/><path d="M25.135 68.823a23.536 23.536 0 01-4.639-5.93 19.14 19.14 0 01.819-5.378c6.875-2.113 14.247-.457 19.504 4.736.146.144.29.29.43.438 1.303 1.37 2.046 2.935 2.473 4.402-4.087 5.304-12.14 7.716-18.587 1.732z" fill="#FF72C3"/><path d="M18.782 43.574l1.828.987a.31.31 0 010 .549l-1.828.987a.315.315 0 00-.126.124l-1 1.806a.318.318 0 01-.555 0l-1-1.806a.315.315 0 00-.126-.124l-1.829-.987a.31.31 0 010-.549l1.829-.987a.314.314 0 00.126-.125l1-1.805a.318.318 0 01.555 0l1 1.805a.312.312 0 00.126.125zm46.913-7.078l1.152.622c.11.06.11.215 0 .274l-1.152.623a.157.157 0 00-.063.062l-.63 1.138a.16.16 0 01-.278 0l-.63-1.138a.159.159 0 00-.063-.062l-1.151-.623a.155.155 0 010-.274l1.151-.622a.156.156 0 00.063-.062l.63-1.138a.16.16 0 01.278 0l.63 1.138a.156.156 0 00.063.062zm-41.319 3.047l1.152.622c.11.06.11.215 0 .274l-1.152.622a.158.158 0 00-.063.063l-.63 1.137a.16.16 0 01-.277 0l-.63-1.138a.158.158 0 00-.063-.062l-1.152-.622a.155.155 0 010-.274l1.152-.622a.158.158 0 00.063-.063l.63-1.137a.16.16 0 01.277 0l.63 1.137a.158.158 0 00.063.063z" fill="#FFF5F5"/></g><defs><clipPath id="clip0"><path fill="#fff" d="M0 0h81v80H0z"/></clipPath></defs></svg>