<svg width="79" height="80" fill="none" xmlns="http://www.w3.org/2000/svg"><g clip-path="url(#clip0)"><path fill-rule="evenodd" clip-rule="evenodd" d="M3.777 2.89h31.255l2.678 3.24-2.678 4.442-31.255-.033C1.698 10.534 0 8.819 0 6.715 0 4.61 1.698 2.89 3.777 2.89z" fill="#365E7D"/><path fill-rule="evenodd" clip-rule="evenodd" d="M36.625 1.277h19.363c4.633 0 8.428 3.843 8.428 8.534v8.73c0 1.584-1.282 2.883-2.847 2.883-1.562 0-2.843-1.298-2.843-2.884v-3.718c0-1.414-1.145-2.568-2.54-2.568-1.397 0-2.537 1.154-2.537 2.568v9.494c0 1.567 1.264 2.846 2.811 2.846h4.362c7.526 0 10.085 3.092 10.085 6.875l-30.748 2.874-30.24-2.874c0-3.782 2.555-6.875 10.085-6.875h12.213c1.547 0 2.815-1.279 2.815-2.846V2.89c0-.89.719-1.613 1.593-1.613z" fill="#FFE07D"/><path fill-rule="evenodd" clip-rule="evenodd" d="M69.254 72.017L39.5 67.967l-28.422 4.05v3.96c0 2.173 1.757 3.953 3.909 3.953h50.358c2.151 0 3.91-1.78 3.91-3.954v-3.959zm2.985-37.98H5.429a.795.795 0 00-.787.797v5.095L39.5 44.306l36.186-4.377v-5.095a.792.792 0 00-.788-.797h-2.66z" fill="#F9F6F6"/><path fill-rule="evenodd" clip-rule="evenodd" d="M4.642 39.93H2.737c-.764 0-1.391.625-1.405 1.39v20.91c.046 5.392 4.413 9.786 9.746 9.786h58.176c5.333 0 9.705-4.399 9.746-9.79V41.325a1.418 1.418 0 00-1.405-1.396H4.642z" fill="#FE93D3"/><path fill-rule="evenodd" clip-rule="evenodd" d="M62.553 47.342H17.78c-.582 0-1.058.482-1.058 1.07v15.126c0 .585.476 1.067 1.058 1.067h44.773c.581 0 1.053-.483 1.053-1.067V48.412c0-.588-.472-1.07-1.053-1.07z" fill="#F9F6F6"/><path fill-rule="evenodd" clip-rule="evenodd" d="M75.686 39.93h-6.17c.763 0 1.39.625 1.41 1.394v20.903c-.047 5.39-4.414 9.79-9.751 9.79h8.08c5.332 0 9.704-4.4 9.745-9.79V41.325a1.418 1.418 0 00-1.405-1.396h-1.91z" fill="#FE72C5"/><path fill-rule="evenodd" clip-rule="evenodd" d="M58.369 48.412V63.54c0 .584-.476 1.066-1.057 1.066h5.24c.582 0 1.054-.482 1.054-1.067V48.413c0-.59-.472-1.071-1.053-1.071h-5.241c.58 0 1.057.482 1.057 1.07zm8.455-14.375c.43 0 .787.357.787.797v5.095h8.075v-5.095a.792.792 0 00-.787-.797h-8.075z" fill="#DDDAEC"/><path fill-rule="evenodd" clip-rule="evenodd" d="M35.032 7.276L3.777 7.243c-.93 0-1.786-.348-2.445-.918a3.804 3.804 0 01-.961-1.26A3.823 3.823 0 000 6.714 3.82 3.82 0 001.332 9.62c.66.57 1.515.918 2.444.918l31.256.033V7.276z" fill="#2B4D66"/><path fill-rule="evenodd" clip-rule="evenodd" d="M61.175 72.017h-4.687v3.96c0 2.173-1.758 3.953-3.905 3.953h12.762c2.152 0 3.91-1.78 3.91-3.954v-3.959h-8.08z" fill="#DDDAEC"/><path d="M50.468 54.302h-9.723a1.2 1.2 0 01-1.192-1.208 1.2 1.2 0 011.192-1.207h9.723a1.2 1.2 0 011.192 1.207 1.2 1.2 0 01-1.192 1.208zm-16.255 0h-4.349a1.2 1.2 0 01-1.192-1.208 1.2 1.2 0 011.192-1.207h4.349a1.2 1.2 0 011.192 1.207 1.2 1.2 0 01-1.192 1.208zm21.332 5.757h-5.983a1.2 1.2 0 01-1.192-1.207 1.2 1.2 0 011.192-1.207h5.983a1.2 1.2 0 011.192 1.207 1.2 1.2 0 01-1.192 1.207zm-12.516 0H24.788a1.2 1.2 0 01-1.192-1.207 1.2 1.2 0 011.192-1.207h18.241a1.2 1.2 0 011.192 1.207 1.2 1.2 0 01-1.192 1.207z" fill="#365E7D"/><path d="M41.363 29.172a1.2 1.2 0 01-1.192-1.207V1.277A1.2 1.2 0 0141.363.07a1.2 1.2 0 011.192 1.207v26.688a1.2 1.2 0 01-1.192 1.207zM48.051 18.5a1.2 1.2 0 01-1.192-1.207V1.277A1.2 1.2 0 0148.05.07a1.2 1.2 0 011.192 1.207v16.016A1.2 1.2 0 0148.05 18.5z" fill="#FFD064"/><path fill-rule="evenodd" clip-rule="evenodd" d="M49.685 1.277c4.633 0 8.427 3.843 8.427 8.534v3.342c.385.45.614 1.034.614 1.67v3.717c0 1.586 1.282 2.884 2.842 2.884 1.566 0 2.848-1.298 2.848-2.884V9.811c0-4.691-3.795-8.534-8.428-8.534h-6.303zm10.277 25.886c3.374 1.423 4.642 4.213 4.642 6.874h6.303c0-3.782-2.559-6.874-10.084-6.874h-.861z" fill="#FFD064"/></g><defs><clipPath id="clip0"><path fill="#fff" d="M0 0h79v80H0z"/></clipPath></defs></svg>