<svg width="76" height="77" fill="none" xmlns="http://www.w3.org/2000/svg"><path d="M9.807 32.29H6.129a1.233 1.233 0 01-1.226-1.242c0-.687.548-1.242 1.226-1.242h3.678c.678 0 1.225.555 1.225 1.242 0 .687-.547 1.242-1.225 1.242z" fill="#656D78"/><path d="M6.13 32.29a1.232 1.232 0 01-1.227-1.242v-6.21c0-.686.548-1.241 1.226-1.241.678 0 1.226.555 1.226 1.242v6.21c0 .686-.548 1.241-1.226 1.241z" fill="#656D78"/><path d="M71.097 52.15c0 .682-.552 1.241-1.226 1.241H8.581a1.238 1.238 0 01-1.226-1.242v-3.726c0-.683.552-1.242 1.226-1.242h61.29c.674 0 1.226.559 1.226 1.242v3.726zM13.545 22.702c1.864.46 3.077 2.323 2.746 4.272-.344 1.938-2.096 3.266-4.01 3.055a27.356 27.356 0 011.264-7.327zm4.364-8.395c1.594 1.08 2.109 3.254 1.14 4.955-.98 1.715-3.09 2.349-4.805 1.49a26.884 26.884 0 013.665-6.445zm6.938-6.371a3.768 3.768 0 01-.613 5.055 3.656 3.656 0 01-5.013-.273 27.064 27.064 0 015.626-4.782zm8.666-3.589c.54 1.863-.44 3.862-2.267 4.533a3.662 3.662 0 01-4.622-1.989 26.035 26.035 0 016.89-2.544zm9.364-.373c-.133 1.937-1.727 3.478-3.677 3.478-1.936 0-3.53-1.528-3.664-3.465a25.773 25.773 0 013.69-.261c1.237 0 2.463.087 3.651.248zm10.691 3.937a27.43 27.43 0 015.626 4.77 3.63 3.63 0 01-5.013.285c-1.497-1.267-1.741-3.49-.613-5.055zM51.79 6.868a3.657 3.657 0 01-4.622 2c-1.825-.671-2.807-2.658-2.267-4.521a25.96 25.96 0 016.89 2.52zm12.405 13.848a3.657 3.657 0 01-4.805-1.477c-.98-1.714-.466-3.875 1.128-4.956a26.821 26.821 0 013.677 6.433z" fill="#E6E9ED"/><path d="M39.2 19.846c4.07 0 7.355 3.34 7.355 7.452 0 4.11-3.285 7.451-7.355 7.451-4.057 0-7.355-3.34-7.355-7.451s3.299-7.452 7.355-7.452z" fill="#FFCE54"/><path d="M66.168 29.993c-1.9.21-3.678-1.118-4.009-3.055-.342-1.95.87-3.802 2.733-4.273a26.7 26.7 0 011.276 7.328zm.026 2.297v7.452c-2.035 0-3.678-1.677-3.678-3.726 0-2.062 1.643-3.726 3.678-3.726z" fill="#E6E9ED"/><path d="M8.58 31.048C8.58 13.898 22.297 0 39.227 0 56.154 0 69.87 13.897 69.87 31.048v16.133h-3.677V31.048c0-.36-.013-.707-.026-1.055a26.778 26.778 0 00-1.275-7.328 22.79 22.79 0 00-.698-1.95 26.91 26.91 0 00-3.677-6.433 27.09 27.09 0 00-1.324-1.602 27.43 27.43 0 00-7.404-5.812A25.912 25.912 0 0044.9 4.347v-.012a26.13 26.13 0 00-2.022-.36 27.137 27.137 0 00-3.653-.25c-1.252 0-2.488.088-3.69.262a21.34 21.34 0 00-2.023.36 25.97 25.97 0 00-6.888 2.545 26.3 26.3 0 00-1.778 1.044 27.064 27.064 0 00-5.626 4.783 23.194 23.194 0 00-1.311 1.588 26.844 26.844 0 00-3.665 6.446c-.27.647-.503 1.291-.699 1.95a27.309 27.309 0 00-1.262 7.326 24.31 24.31 0 00-.026 1.02v1.862a1.848 1.848 0 01-1.839 1.863 1.848 1.848 0 01-1.838-1.863v-1.863z" fill="#CCD1D9"/><path d="M61.29 53.391h-7.355c0-2.05 1.643-3.726 3.678-3.726s3.677 1.676 3.677 3.726zm7.355 0H61.29c0-2.05 1.642-3.726 3.678-3.726 2.034 0 3.677 1.676 3.677 3.726zm-14.71 0h-7.354c0-2.05 1.642-3.726 3.677-3.726s3.677 1.676 3.677 3.726zm-7.355 0h-7.354c0-2.05 1.642-3.726 3.677-3.726s3.677 1.676 3.677 3.726zm-7.354 0H31.87c0-2.05 1.643-3.726 3.677-3.726 2.035 0 3.678 1.676 3.678 3.726z" fill="#F5F7FA"/><path d="M31.871 53.391h-7.355c0-2.05 1.643-3.726 3.678-3.726s3.677 1.676 3.677 3.726zm-7.355 0h-7.355c0-2.05 1.642-3.726 3.678-3.726 2.035 0 3.677 1.676 3.677 3.726z" fill="#F5F7FA"/><path d="M17.162 53.391H9.806c0-2.05 1.642-3.726 3.677-3.726s3.678 1.676 3.678 3.726z" fill="#F5F7FA"/><path d="M69.871 72.032c.674 0 1.226.56 1.226 1.242v2.484c0 .683-.552 1.242-1.226 1.242H8.581c-.674 0-1.226-.56-1.226-1.242v-2.484c0-.683.552-1.242 1.226-1.242h61.29z" fill="#E6E9ED"/><path d="M68.645 53.391v18.641H9.807v-18.64h58.838z" fill="#CCD1D9"/><path d="M14.708 65.82a1.233 1.233 0 01-1.226-1.242v-3.726c0-.687.548-1.241 1.226-1.241.678 0 1.226.554 1.226 1.241v3.726c0 .687-.548 1.242-1.226 1.242zm4.904 0a1.233 1.233 0 01-1.226-1.242v-3.726c0-.687.547-1.241 1.226-1.241.677 0 1.225.554 1.225 1.241v3.726c0 .687-.548 1.242-1.225 1.242zm4.903 0a1.233 1.233 0 01-1.226-1.242v-3.726c0-.687.548-1.241 1.226-1.241.677 0 1.226.554 1.226 1.241v3.726c0 .687-.549 1.242-1.226 1.242zm4.903 0a1.233 1.233 0 01-1.226-1.242v-3.726c0-.687.548-1.241 1.226-1.241.678 0 1.226.554 1.226 1.241v3.726c0 .687-.548 1.242-1.226 1.242zm4.903 0a1.233 1.233 0 01-1.226-1.242v-3.726c0-.687.548-1.241 1.226-1.241.678 0 1.226.554 1.226 1.241v3.726c0 .687-.548 1.242-1.226 1.242zm4.903 0A1.233 1.233 0 0138 64.578v-3.726c0-.687.547-1.241 1.225-1.241s1.226.554 1.226 1.241v3.726c0 .687-.548 1.242-1.226 1.242zm4.904 0a1.233 1.233 0 01-1.226-1.242v-3.726c0-.687.547-1.241 1.226-1.241.677 0 1.225.554 1.225 1.241v3.726c0 .687-.548 1.242-1.225 1.242zm4.903 0a1.233 1.233 0 01-1.226-1.242v-3.726c0-.687.548-1.241 1.226-1.241.678 0 1.226.554 1.226 1.241v3.726c0 .687-.548 1.242-1.226 1.242zm4.903 0a1.233 1.233 0 01-1.226-1.242v-3.726c0-.687.548-1.241 1.226-1.241.677 0 1.226.554 1.226 1.241v3.726c0 .687-.549 1.242-1.226 1.242zm4.903 0a1.233 1.233 0 01-1.226-1.242v-3.726c0-.687.548-1.241 1.226-1.241.678 0 1.226.554 1.226 1.241v3.726c0 .687-.548 1.242-1.226 1.242zm4.903 0a1.233 1.233 0 01-1.225-1.242v-3.726c0-.687.547-1.241 1.225-1.241s1.226.554 1.226 1.241v3.726c0 .687-.548 1.242-1.225 1.242z" fill="#AAB2BD"/><path d="M39.225 17.385a1.233 1.233 0 01-1.226-1.242V13.66c0-.687.548-1.242 1.226-1.242.677 0 1.226.555 1.226 1.242v2.482c0 .686-.549 1.242-1.226 1.242zm0 24.835a1.233 1.233 0 01-1.226-1.241v-2.481c0-.688.548-1.242 1.226-1.242.677 0 1.226.554 1.226 1.242v2.481c0 .687-.549 1.242-1.226 1.242zm-7.8-21.56c-.314 0-.628-.122-.867-.364l-1.733-1.756a1.252 1.252 0 010-1.756 1.213 1.213 0 011.733 0l1.733 1.756c.48.485.48 1.27 0 1.756-.24.242-.552.363-.866.363zm17.332 17.56c-.313 0-.627-.121-.866-.363l-1.73-1.754a1.252 1.252 0 010-1.756 1.213 1.213 0 011.732 0l1.731 1.753c.48.486.48 1.27 0 1.757a1.207 1.207 0 01-.867.363zm-20.563-9.658h-2.452a1.233 1.233 0 01-1.226-1.242c0-.687.548-1.242 1.226-1.242h2.451c.679 0 1.226.555 1.226 1.242 0 .687-.547 1.242-1.226 1.242zm24.513 0h-2.448a1.233 1.233 0 01-1.226-1.242c0-.687.548-1.242 1.226-1.242h2.448c.678 0 1.226.555 1.226 1.242 0 .687-.548 1.242-1.226 1.242zM29.692 38.22c-.315 0-.628-.121-.867-.363a1.252 1.252 0 010-1.757l1.733-1.756a1.213 1.213 0 011.733 0c.48.486.48 1.27 0 1.756l-1.733 1.757c-.24.243-.553.364-.866.364zm17.334-17.563c-.313 0-.627-.121-.866-.364a1.252 1.252 0 010-1.756l1.73-1.753a1.213 1.213 0 011.734 0c.48.485.48 1.27 0 1.756l-1.73 1.753a1.212 1.212 0 01-.868.364z" fill="#FFCE54"/></svg>