<svg width="80" height="80" fill="none" xmlns="http://www.w3.org/2000/svg"><g clip-path="url(#clip0)"><path d="M75.975 50.86H31.92c-2.667 0-4.83 1.028-4.83 1.028l-4.828-1.028H8.048c0 8.528 5.745 19.247 14.214 22.701h38.695c5.21-2.125 11.218-7.786 15.07-12.895 1.477-2.688 2.363-5.29 2.363-7.391a2.415 2.415 0 00-2.415-2.415z" fill="#7F78BD"/><path d="M60.956 71.952h-36.28C16.978 68.302 9.778 59.58 8.047 50.86h-.804a2.414 2.414 0 00-2.415 2.415c0 6.683 8.965 18.441 17.433 21.896l18.75 2.414 19.945-2.414c5.807-2.369 11.846-8.642 15.07-14.505-3.852 5.109-9.859 9.16-15.07 11.286z" fill="#5F55AD"/><path d="M24.676 75.171l-1.61 4.024 37.89-1.61v-2.414h-36.28z" fill="#7F78BD"/><path d="M24.676 76.337v-1.166h-2.414v2.414A2.415 2.415 0 0024.676 80h33.866a2.415 2.415 0 002.414-2.415H25.925c-.69 0-1.249-.558-1.249-1.248z" fill="#5F55AD"/><path d="M27.09 62.362v-6.673a4.829 4.829 0 014.83-4.829h-7.244l-1.61 11.434c0 .903 1.493 2.153 2.824 2.153a2.41 2.41 0 001.2-2.085z" fill="#FFF0AF"/><path d="M24.676 62.294V50.86h-2.414v11.434c0 1.3.999 2.419 2.297 2.48.487.022.943-.101 1.33-.328a2.51 2.51 0 01-1.213-2.152z" fill="#FFD064"/><path d="M62.72 46.404L55.514 39.2 40.921 50.573l8.815 9.78c.943.944 2.083.366 4.267-1.817l3.44-3.416.359-1.412 1.348-.296 3.57-3.593a2.414 2.414 0 000-3.415z" fill="#FFF0AF"/><path d="M49.736 59.388l-8.815-8.815-.097 3.317 7.205 7.205a2.414 2.414 0 003.415 0l1.707-1.707a2.415 2.415 0 01-3.415 0z" fill="#FFD064"/><path d="M52.296 60.243l-5.472-5.5a1.207 1.207 0 111.707-1.707l5.472 5.5-1.707 1.707zm5.147-5.123l-5.498-5.498a1.207 1.207 0 111.708-1.707l5.498 5.498-1.708 1.707z" fill="#FFD064"/><path d="M55.78 36.099l-6.226-8.815a2.415 2.415 0 00-2.475-.969l-7.303 1.553a10.664 10.664 0 01-9.759-2.89L5.78.74C4.859-.18 3.362-.264 2.4.61c-.029.027-.054.056-.082.084L27.505 27.49a10.664 10.664 0 012.89 9.76l-1.553 7.302c-.2.945.18 1.918.969 2.475l8.815 6.225c.96.678 3.073-.238 3.905-1.07L55.514 39.2c.832-.831.943-2.14.265-3.1z" fill="#94D8E6"/><path d="M39.43 52.448l-8.163-5.766a2.415 2.415 0 01-.969-2.475l1.159-5.446c1.052-4.948-.465-9.394-3.147-12.075L2.318.694a2.413 2.413 0 00-.002 3.412l24.287 24.287a10.664 10.664 0 012.89 9.759l-1.553 7.303c-.201.944.18 1.918.968 2.474l8.815 6.226c.96.678 2.27.566 3.1-.265l1.708-1.707c-.831.83-2.14.943-3.1.265z" fill="#61AAB8"/></g><defs><clipPath id="clip0"><path fill="#fff" d="M0 0h80v80H0z"/></clipPath></defs></svg>