<svg width="48" height="48" fill="none" xmlns="http://www.w3.org/2000/svg"><circle cx="24" cy="24" r="24" fill="#0E63DC"/><path d="M19.82 33.01c8.49 0 13.134-7.034 13.134-13.134 0-.2-.005-.398-.014-.596a9.393 9.393 0 002.303-2.39 9.211 9.211 0 01-2.65.726 4.634 4.634 0 002.03-2.553 9.258 9.258 0 01-2.932 1.12 4.617 4.617 0 00-7.866 4.21 13.107 13.107 0 01-9.516-4.823 4.605 4.605 0 00-.625 2.32c0 1.602.815 3.016 2.054 3.843a4.581 4.581 0 01-2.09-.578l-.001.06a4.618 4.618 0 003.703 4.525 4.635 4.635 0 01-2.085.079 4.621 4.621 0 004.313 3.206 9.261 9.261 0 01-5.734 1.976c-.372 0-.74-.021-1.1-.064a13.068 13.068 0 007.075 2.074" fill="#fff"/></svg>